<svg fill="#000000" xmlns="http://www.w3.org/2000/svg" xmlns:xlink="http://www.w3.org/1999/xlink" version="1.1" x="0px" y="0px" viewBox="0 0 100 100" style="enable-background:new 0 0 100 100;" xml:space="preserve"><polygon points="86.8181763,28.1254826 86.8181763,20.8339767 78.6363602,20.8339767 78.6363602,13.5424738 62.2727165,13.5424738   62.2727165,20.8339767 54.0909157,20.8339767 54.0909157,28.1254826 45.9090958,28.1254826 45.9090958,20.8339767   37.727272,20.8339767 37.727272,13.5424738 21.3636322,13.5424738 21.3636322,20.8339767 13.1818209,20.8339767   13.1818209,28.1254826 5,28.1254826 5,50 13.1818209,50 13.1818209,57.2915077 21.3636322,57.2915077 21.3636322,64.5830078   29.5454521,64.5830078 29.5454521,71.8745193 37.727272,71.8745193 37.727272,79.1660156 45.9090958,79.1660156   45.9090958,86.4575272 54.0909157,86.4575272 54.0909157,79.1660156 62.2727165,79.1660156 62.2727165,71.8745193   70.4545364,71.8745193 70.4545364,64.5830078 78.6363602,64.5830078 78.6363602,57.2915077 86.8181763,57.2915077 86.8181763,50   95,50 95,28.1254826 "></polygon></svg>